<svg height="512pt" viewBox="0 0 512 512" width="512pt" xmlns="http://www.w3.org/2000/svg"><linearGradient id="a" gradientUnits="userSpaceOnUse" x1="0" x2="512" y1="256" y2="256"><stop offset="0" stop-color="#80d8ff"/><stop offset="1" stop-color="#ea80fc"/></linearGradient><path d="M492 472c-30.879 0-56-25.121-56-56V96c0-52.934-43.066-96-96-96H20C8.953 0 0 8.953 0 20s8.953 20 20 20c30.879 0 56 25.121 56 56v320c0 52.934 43.066 96 96 96h320c11.047 0 20-8.953 20-20s-8.953-20-20-20zm-320 0c-30.879 0-56-25.121-56-56V96c0-20.883-6.703-40.227-18.066-56H340c30.879 0 56 25.121 56 56v320c0 20.883 6.703 40.227 18.066 56zm188.023-335.5c0 11.047-8.953 20-20 20h-168c-11.043 0-20-8.953-20-20s8.957-20 20-20h168c11.047 0 20 8.953 20 20zm0 80c0 11.047-8.953 20-20 20h-168c-11.043 0-20-8.953-20-20s8.957-20 20-20h168c11.047 0 20 8.953 20 20zm-3.75 90.375c6.422 8.988 4.34 21.48-4.648 27.898l-55.996 40a19.995 19.995 0 01-23.25 0l-44.375-31.695-44.379 31.695c-8.95 6.395-21.45 4.383-27.898-4.648-6.422-8.988-4.34-21.48 4.648-27.898l56.004-40a19.995 19.995 0 0123.25 0l44.375 31.695 44.371-31.695c8.984-6.422 21.477-4.34 27.898 4.648zm0 0" fill="url(#a)"/></svg>