<svg height="511pt" viewBox="0 0 512 511" width="511pt" xmlns="http://www.w3.org/2000/svg"><path d="M511.992 230.473c0-39.73-21.176-74.606-52.836-93.934 14.2-14.445 22.98-34.23 22.98-56.035 0-44.102-35.878-79.984-79.984-79.984-19.304 0-37.03 6.875-50.867 18.304-60.7-24.398-129.531-24.441-190.293-.074C147.172 7.367 129.477.52 110.215.52 66.113.52 30.23 36.402 30.23 80.504c0 21.754 8.743 41.492 22.88 55.926C21.354 155.738.101 190.668.101 230.473c1.43 14.336-9.934 90.41 44.328 170.004 25.746 37.761 60.695 67.683 101.64 87.164v4.777c0 11.043 8.953 19.996 19.996 19.996h179.961c11.043 0 19.996-8.953 19.996-19.996v-4.777c90.137-42.887 150.844-136.887 145.66-243.786.524-3.046.22-3.964.31-13.382zm-109.976-69.985c35.195 0 64.406 26.114 69.273 59.985H332.742c4.867-33.871 34.078-59.985 69.274-59.985zm40.129-79.984c0 22.05-17.942 39.992-39.993 39.992-22.05 0-39.992-17.941-39.992-39.992 0-22.05 17.942-39.992 39.992-39.992 22.051 0 39.993 17.941 39.993 39.992zm-331.93-39.992c22.05 0 39.992 17.941 39.992 39.992 0 22.05-17.941 39.992-39.992 39.992-22.05 0-39.992-17.941-39.992-39.992 0-22.05 17.941-39.992 39.992-39.992zm-.137 119.976c35.195 0 64.406 26.114 69.274 59.985H40.805c4.867-33.871 34.078-59.985 69.273-59.985zm76.695 311.934c4.868-33.871 34.079-59.988 69.274-59.988s64.406 26.117 69.273 59.988zm69.41-99.98c-22.05 0-39.992-17.942-39.992-39.993s17.942-39.992 39.993-39.992c22.05 0 39.992 17.941 39.992 39.992s-17.942 39.992-39.992 39.992zm103.614 73.5c-8.492-24.079-25.137-44.344-46.61-57.458 14.2-14.441 22.981-34.23 22.981-56.035 0-44.101-35.879-79.98-79.984-79.98-44.102 0-79.98 35.879-79.98 79.98 0 21.754 8.737 41.496 22.874 55.926-21.558 13.11-38.27 33.422-46.781 57.566C84.59 408.957 41.55 338.691 40.129 260.465h159.93c11.043 0 19.996-8.953 19.996-19.996v-9.996c0-39.73-21.18-74.606-52.836-93.934 22.402-22.789 28.562-55.703 17.883-84.105C230.82 36.5 281.5 36.516 327.234 52.52a79.78 79.78 0 0017.813 83.91c-31.754 19.308-53.008 54.238-53.008 94.043v9.996c0 11.043 8.953 19.996 19.996 19.996h159.93c-1.422 78.226-44.461 148.492-112.168 185.476zm0 0" fill="url(#a)"/></svg>