<svg xmlns="http://www.w3.org/2000/svg" width="70.9" height="70.9"><g data-name="Layer 2"><g data-name="Layer 1"><rect width="70.9" height="70.87" rx="35.4" fill="#fff"/><path d="M33.5 12.8a22.8 22.8 0 00-16.6 9.5 52.9 52.9 0 0113 3.4 62.9 62.9 0 013.6-12.9zm-4 15.6a54.1 54.1 0 00-14.1-3.6 22.4 22.4 0 000 21.3 52.8 52.8 0 0014-3.6 66.7 66.7 0 01.1-14.1zM16.9 48.6A22.9 22.9 0 0033.3 58a54.5 54.5 0 01-3.5-12.7 57.2 57.2 0 01-12.9 3.3zm27.5-14.9a63.1 63.1 0 0010.2-10.4 22.7 22.7 0 00-18.3-10.5 60.4 60.4 0 00-3.8 13.9 69.2 69.2 0 0111.9 7zm2.1 1.7A72 72 0 0156 45a21.8 21.8 0 002.1-9.6 22.4 22.4 0 00-2.1-9.6 66.5 66.5 0 01-9.5 9.6zm-2.1 1.7a68.1 68.1 0 01-12 7.1 48.6 48.6 0 003.9 13.9 22.6 22.6 0 0018.3-10.6 63.1 63.1 0 00-10.2-10.4z"/></g></g></svg>