<svg xmlns="http://www.w3.org/2000/svg" width="198.4" height="50.2"><g data-name="Layer 2"><path d="M70.2 14.6h-4.8v21h15v-4.2H70.2V14.6zm17 12.3h6.9v-4.2h-6.9v-3.9h11.3v-4.2H82.4v21h16.1v-4.2H87.2v-4.5zm20.3-12.3l-7.9 21h5.2l1.3-3.8h8.2l1.3 3.8h5.3l-8-21zm-.1 13.4v-.2l2.8-8.3v.3L113 28zm15.2-13.4v21h6.9c3.8 0 6.7-.8 8.7-2.2s3.5-4.5 3.5-8.3c0-6.9-4.1-10.5-12.2-10.5zm14.1 10.5c0 5.7-3.4 6.5-7.1 6.5h-2.1v-13h2.1c3.5 0 7.1.8 7.1 6.5zM163 14.6h-7.3v21h4.6V18.4l5.2 17.2h4l5.2-17.2v17.2h4.7v-21H172L167.5 30 163 14.6zm35.4 4.2v-4.2h-16.1v21h16.1v-4.2h-11.2v-4.5h6.8v-4.2h-6.8v-3.9h11.2zm-54.3 4.4h8.7v3.9h-8.7zM22.9.1A24.6 24.6 0 004.7 10.6 58.4 58.4 0 0119 14.3 75.8 75.8 0 0122.9.1zm-4.3 17.3a55.8 55.8 0 00-15.7-4.1A26.4 26.4 0 000 25.1a25.7 25.7 0 002.9 11.8 57.7 57.7 0 0015.6-4 67.2 67.2 0 01.1-15.5zM4.7 39.7a24.9 24.9 0 0018.1 10.4A54.8 54.8 0 0118.9 36a64.3 64.3 0 01-14.2 3.7zM35 23.2a65.4 65.4 0 0011.4-11.5A25.1 25.1 0 0026.1 0a71.1 71.1 0 00-4.3 15.5A63.3 63.3 0 0135 23.2zm2.4 1.9a70.3 70.3 0 0110.5 10.6 24.6 24.6 0 000-21.2 70.3 70.3 0 01-10.5 10.6zM35 27a67.3 67.3 0 01-13.3 7.8A59.8 59.8 0 0026 50.2a25.2 25.2 0 0020.4-11.7A69 69 0 0035 27z" data-name="Layer 1"/></g></svg>