<svg height="512pt" viewBox="0 -5 512 511" width="512pt" xmlns="http://www.w3.org/2000/svg"><path d="M334 265.262h-58v216c0 11.043-8.953 20-20 20s-20-8.957-20-20v-216h-58c-11.047 0-20-8.957-20-20 0-11.047 8.953-20 20-20h156c11.047 0 20 8.953 20 20 0 11.043-8.953 20-20 20zM0 77.559C0 35.066 34.543.5 77 .5s77 34.566 77 77.059c0 42.492-34.543 77.062-77 77.062S0 120.051 0 77.56zm40 0c0 20.437 16.598 37.062 37 37.062s37-16.625 37-37.062C114 57.125 97.402 40.5 77 40.5S40 57.125 40 77.559zm174 229.757V481.5c0 11.047-8.953 20-20 20h-76c-11.047 0-20-8.953-20-20v-78.102H39c-11.047 0-20-8.957-20-20V222.711c0-32.004 26.02-58.04 58-58.04s58 26.036 58 58.04v64.605h59c11.047 0 20 8.957 20 20zm-40 20h-59c-11.047 0-20-8.953-20-20v-84.605c0-9.945-8.074-18.04-18-18.04s-18 8.095-18 18.04v140.687h59c11.047 0 20 8.954 20 20V461.5h36zM358 77.56C358 35.07 392.543.5 435 .5s77 34.566 77 77.059c0 42.492-34.543 77.062-77 77.062s-77-34.57-77-77.062zm40 0c0 20.437 16.598 37.062 37 37.062s37-16.625 37-37.062c0-20.434-16.598-37.059-37-37.059s-37 16.625-37 37.059zm95 145.152v160.687c0 11.047-8.953 20-20 20h-59V481.5c0 11.047-8.953 20-20 20h-76c-11.047 0-20-8.953-20-20V307.316c0-11.043 8.953-20 20-20h59v-64.605c0-32.004 26.02-58.04 58-58.04s58 26.036 58 58.04zm-40 0c0-9.945-8.074-18.04-18-18.04s-18 8.095-18 18.04v84.605c0 11.047-8.953 20-20 20h-59V461.5h36v-78.102c0-11.046 8.953-20 20-20h59zm0 0" fill="url(#a)"/></svg>