<svg height="512pt" viewBox="0 0 512 512" width="512pt" xmlns="http://www.w3.org/2000/svg"><path d="M492 0H374c-17.523 0-26.602 21.07-14.484 33.793L386.383 62l-26.867 28.207C347.43 102.898 356.43 124 374 124h98v56c0 11.047 8.953 20 20 20s20-8.953 20-20V20c0-11.047-8.953-20-20-20zm-20 84h-51.332l7.816-8.207c7.356-7.723 7.356-19.863 0-27.586L420.668 40H472zM58 396c-31.98 0-58 26.02-58 58s26.02 58 58 58 58-26.02 58-58-26.02-58-58-58zm0 76c-9.926 0-18-8.074-18-18s8.074-18 18-18 18 8.074 18 18-8.074 18-18 18zm454-222v133.5c0 70.855-57.645 128.5-128.5 128.5S255 454.355 255 383.5v-255c0-48.8-39.7-88.5-88.5-88.5S78 79.7 78 128.5V346c0 11.047-8.953 20-20 20s-20-8.953-20-20V128.5C38 57.645 95.645 0 166.5 0S295 57.645 295 128.5v255c0 48.8 39.7 88.5 88.5 88.5s88.5-39.7 88.5-88.5V250c0-11.047 8.953-20 20-20s20 8.953 20 20zm0 0" fill="url(#a)"/></svg>